/* XPM */
static char *result[] = {
/* columns rows colors chars-per-pixel */
"64 64 13 1 ",
"  c black",
". c #FFD67F",
"X c #FFDB82",
"o c #C3A461",
"O c #2B2315",
"+ c #3E341F",
"@ c #D6B46A",
"# c #0B0905",
"$ c #917A48",
"% c #3F341F",
"& c #3F351F",
"* c #F6CE7A",
"= c #6F5D37",
/* pixels */
"                                                                ",
"                                                                ",
"                                                                ",
"                                                                ",
"                                                                ",
"                                                                ",
"                                                                ",
"                                                                ",
"                                                                ",
"                                                                ",
"                                                                ",
"                                                                ",
"                                                                ",
"                                                                ",
"                                                                ",
"                                                                ",
"                                                                ",
"                                                                ",
"                                                                ",
"                                                                ",
"                                                                ",
"                                                                ",
"                                                                ",
"                         #O&%++++++%&O#                         ",
"                         O$oooooooooo$O                         ",
"                       #O=@XXXXXXXXXX@=O#                       ",
"                       O$@*XXXXXXXXXX*@$O                       ",
"                     #O=@XX..........XX@=O#                     ",
"                     O$@*X............X*@$O                     ",
"                     &oXX..............XXo&                     ",
"                     %oXX..............XXo%                     ",
"                     +oXX..............XXo+                     ",
"                     +oXX..............XXo+                     ",
"                     +oXX..............XXo+                     ",
"                     +oXX..............XXo+                     ",
"                     %oXX..............XXo%                     ",
"                     &oXX..............XXo&                     ",
"                     O$@*X............X*@$O                     ",
"                     #O=@XX..........XX@=O#                     ",
"                       O$@*XXXXXXXXXX*@$O                       ",
"                       #O=@XXXXXXXXXX@=O#                       ",
"                         O$oooooooooo$O                         ",
"                         #O&%++++++%&O#                         ",
"                                                                ",
"                                                                ",
"                                                                ",
"                                                                ",
"                                                                ",
"                                                                ",
"                                                                ",
"                                                                ",
"                                                                ",
"                                                                ",
"                                                                ",
"                                                                ",
"                                                                ",
"                                                                ",
"                                                                ",
"                                                                ",
"                                                                ",
"                                                                ",
"                                                                ",
"                                                                ",
"                                                                "
};
