/* XPM */
static char *result[] = {
/* columns rows colors chars-per-pixel */
"70 70 89 1 ",
"  c black",
". c #000103",
"X c #020306",
"o c #03060A",
"O c #060A10",
"+ c #20394F",
"@ c #2A3F5A",
"# c #263A55",
"$ c #243D53",
"% c #2D445F",
"& c #243651",
"* c #090F17",
"= c #1F354B",
"- c #1D2D40",
"; c #1F3148",
": c #36516C",
"> c #354B6A",
", c #496287",
"< c #314765",
"1 c #111B29",
"2 c #0C121D",
"3 c #40577A",
"4 c #3A5772",
"5 c #172334",
"6 c #476784",
"7 c #1A283A",
"8 c #0F1723",
"9 c #141F2F",
"0 c #2D495E",
"q c #374E4B",
"w c #3B5273",
"e c #507290",
"r c #455D82",
"t c #5E8284",
"y c #3F5C79",
"u c #274255",
"i c #406177",
"p c #4E688F",
"a c #4B6C8A",
"s c #516D94",
"d c #587C83",
"f c #415851",
"g c #55759A",
"h c #537197",
"j c #294659",
"k c #9AAA56",
"l c #5979A2",
"z c #3C5B68",
"x c #507179",
"c c #698F8C",
"v c #304E63",
"b c #375460",
"n c #94A863",
"m c #688677",
"M c #456677",
"N c #628888",
"B c #5A7871",
"V c #4B6B75",
"C c #9AAE6E",
"Z c #789C91",
"A c #4D6556",
"S c #53767F",
"D c #8BA26C",
"F c #627C64",
"G c #7A926A",
"H c #476362",
"J c #5D755F",
"K c #6B8463",
"L c #AAB856",
"P c #557A97",
"I c #536D5D",
"U c #839B6C",
"Y c #91A878",
"T c #E3E8A5",
"R c #EDF1B8",
"E c #9DB894",
"W c #D1DA76",
"Q c #738B67",
"! c #DBE395",
"~ c #A2B153",
"^ c #8CAA90",
"/ c #F7F8D1",
"( c #B0C595",
") c #B9C45B",
"_ c #CDD796",
"` c #BFCD88",
"' c #C3CE63",
"] c #A5B878",
"[ c #B3C174",
/* pixels */
"                         .XooooooooooooOOOOo.                         ",
"                         ..XXXXXXXXXXXXooooX. ....                    ",
"                           ..          ..... .oooX.                   ",
"                       .XoooOOOO*********OOOoooOoXX.                  ",
"                      .o*21957-;=+$u%uu$+;-58*o...XXX                 ",
"                  ..XoO*17;#@<>:4i66a66iy4:%=52OooooX.                ",
"                 .XO*815;#%>::43yi66666,,6p,3>#-58OXXXX.              ",
"                .oO85-;#@<:w:::ww44::w4w3,sghs,3<=1OooX.              ",
"             .XoO215;+@@%%00%@%%<<<%%%%%<:r,psse63@72o.  ...          ",
"            .XO*89-;$uu@#&+==;=+$$$$$+===+$%>46elgpw-O. .XX.          ",
"           .XO215-=+++$$##++$+++$$$++==;;==$u0:yaglp<72OooX.          ",
"          .XO897-=+=--;+@0v:44b0juu$++++$$$uu$+@>rhgp:=1*oX.          ",
"         .Xo*17--=+==+@<:yi66VMzbv0u$+++$uujj$==#>3psa4+9OX...        ",
"        .XO28577-;+j:4iaeeeeeSxVM4::0$==++$ujjj@#+$<rhey$2.XoX        ",
"        Xo*8957-;+j46ePPPPeeSSSSx6MMivu$$$$uj0vvu=-=>6ge47OOoo..      ",
"        oO21957;u:iaPPPeaMiixSdttddddxMzb0uuujvvv0$+$>,g6%7*oooX      ",
"       .o*8957;%46ePPe6izzziVdtNNNNcccNdxib0uujv:4vu+=>ah,%9ooOo.     ",
"      .XO215-#>yaggai4vbzVxStNNNttttNccctdxMbj$uv44v$=%rhhy;2OoXX.    ",
"     .Xo*85-$wpglgay0$$vVdNcccNtBBBBtmccccctVb$+j:y40$@:pls<5*XXoX.   ",
"    .Xo*21-@4pggei:0jjviSttttBBBFFFFFKKmtNcctxbuu04i:%@%ygg3&8X.oX.   ",
"   .XoO*85#yslla4j+$vyadttBIAAIFKKKKKKFJIBtcZcxzu$biy:%$vagp>5oXoo.   ",
"   .XoO*1;>allsy0+=jiSttSVAAAIJKGGGGGQQKJJBNZZcVj=0iMy%=u6ge37oXOo.   ",
"   .oOoO5%,lls40$$jzSttBHffAJKGUDDDDDDDDUKJFcZZd0;uz66v=#yeg,;OoOo.   ",
"   .oOO2;3glgr<++ubxttxHffAFQUDnnknknnYCYGKFNZZcz+ubMa4+$:6g6+2OOo.   ",
"   .oO*1@allp:$;+vMSdxbqfIQDYCCkkkkkkkkCCDUGmcZcM0jviayju>rea%92*o.   ",
"  ..XO8-:glhy%==uzSdxzqqIQY]([[LLLL~~~kkkCYUQGZZSz00ya6:0<3ee:-8Oo..  ",
" .XoXO9#rgl,:$+uzxdxHffIm^E`___``')')L~kkCCYUU^Zdiju4a640%4hP4=1OXXX. ",
" .XoXO7:pgs3%+$bVddVqqAmZE(_!TTTT!WWW')~kkCCYY^Ztij$4aay<%wglr$1o.oo. ",
" .Xoo8#,hg,>$+jiddxzqfBc^E(`__TRRRRT!W'L~kCC^^^Ztiu+:aay>@>sl,%9oXoo. ",
"   X*5>slhy%+#v6dSHqufFZ^E][[`!R////R!W)L~CCE^^Zdz$=v6ayv@>sl,%9oXOo. ",
"X. o8;3glpw$=$:aPVbqqfmZ^]]]L)'!R////R!W)L]]EE^cxb$#:6640@>sl,@5OoOo. ",
"oX o1#rll,>+=%4aeijuqAmZYCCC~~)W!R////R!W`[((E^mAq$@w6i:0%whgr#5*OOo. ",
"oX.O9%,lh3%++<ree4$$qImZYYCCkkL'W!TRRRRR!_``(EZJfqu0y6iv%<yhg3&58*Oo. ",
"oX O7<6ls4@+$:6ee4$$fImZGUYCkk~)'WWW!TTTT!_`(^mAqq0biay%%:ighw=58*Oo. ",
"X. O7>,hp:@+@4age:+$bImcQGDCnkkL))'''W_____(EZJfqqbz66w#$:6gs>-912Oo. ",
".  O->,s,>@+%iePe:=+bxmmmKUYnnkk~~LLLL[[``(EZmAqqqz6ar<;+4agp%7912OX. ",
".  O-:,pr>$+%iPPev;=bVmmFFQDYnnkkkkkkkk~]]EZmIfqqbMa6w#-#yehr$5112OX. ",
"X. O-w,p3%+&%iePe:;;0MmmBJKGDYnnnnnkkkknnDGKIfqqqzVai<&;%pgs4&9182OX. ",
"oX O;w,,3@==@yePe:=;$ztmFJJFGDYDnnnnnDnDUGFIfqqqziV6w$=#whl,<;918*OX. ",
"oX O-:,,w@==@4aPe4+;+bBmmBAAJQGUDDDDDUUGQJAfqqfzVVM3%=#:,lhw#-518*oX. ",
"oX O->r,w@&&@w6eeyu==0VBmmAfAJKQGGUUGQKFJAfqqqHVxxy>&;%,glp<-7518*oX. ",
"X. O7<rrw@&&@:ieeyj++ubVNcBHffAIJJFFJIAAfqqqbHxSSM>#;#whlhy@75512Oo.  ",
".  O5%3r3%&&$<4aei0$+$jztccdHfqqffAAffqqqqqbHxtdV4@;&<,ll,>+7598*oX   ",
"   o5#wr3%&&#%4aei0u++$bxNcNBHffffffffqqqfzHxddx4%&&<ysla:$=-512OX.   ",
"   o1&:r3%&=&@w6eMvu$++jzxtNNdBIHHHHHHHHIVxSdSV4%##%3sha4@;;;71*oX.   ",
"   o8;<33%&;;#>,e6:j+=+u0zVdtNtBBBSxxxBBBdddxM4<@@<w,sp4<&;;-58*oX.   ",
"   X25@ww%&;;&%3p,4<+=++$uvixdttNNNNNNtttdxVzv%@<wy,,rw%#&=;-92OoX.   ",
"   XO1;>>%#--;#w,,r:@&&&==u0zMxdtNNtttdSxVizv0%<:3,,3:%&&&&;71*Oo.    ",
" ..Xo*7%><#-7-&<3,,3<@&==++ujv:zMMMMMMizbv00v:44333:<@&;;&&-58OoX.    ",
" .XX.o9&<<@-77;@:rp,3<$++++++$@%vvv>000u$##%>4yy3:<@#===&#=71*oX      ",
"  .. X8-#%@;---&<3psp3%$$$$$+++$$@@@$$@@@%%>:ww:>%@##&###&-92Oo.      ",
"     X*9;@@&;--;@:,sg6:%@@@@$++++#+++#@%<>>>:><%####@@@@#;58Ooo.      ",
"    .XO87=##=-7-=@w6ee64>%@$#++++&&+##@@%<<<@@###@%<<<<@&-1*oXX.      ",
"   .Xoo*1-=+&-77-=@:6ehpy>%@$##&&&####@@@@@#&==#%>w3w>%#-58OoX.       ",
"   ..XoO29-;;--7--;@:,ssprw>%@#&&&&==&&#####&##%w3rrw<#-98*oX.        ",
"     .XoO297----777-+<rphh6yw>@#&&&;;;=&###@%<>3,,,3>#71*OoX.         ",
"      .XoO215---77557&<yphea,rw><<%@@@%<<>>>>w3r,,3>#71*OoX.          ",
"       .XoO*85--759997;%36shhhp,,rr333rrr,,r3333w>%&58*OoX.           ",
"        .XoO*1577591995;%3,phhhhssppspppssp,3w><@&-58OoXX.            ",
"         .XoO21999111997=@>wr,phhsssssssp,,3>@#;7982*oXX.             ",
"          .XoO28811111197-=@%>3r,,,,,,,r3w<@&-598*OOooX.              ",
"          .XoOO**22288119957-;&#@@@%<<<@&-591882*OOoXX.               ",
"          .XooooOOO*2888888819999957--7512OOOOOOOOooX.                ",
"          ..XXXooooO****2222222228811182*OooOooooXX..                 ",
"              .XooooOOOO*********222**OOOOOOOoX....                   ",
"               .XXoooooooOOOOOOO***OOooooooooX.                       ",
"                .XooooooXXoooooOOooooX.XoX....                        ",
"                 .XXXXXX..XoXXoooXXXX. .X.                            ",
"                 .......XoooX........   ..                            ",
"                       .XoooX.                                        "
};
