/* XPM */
static char *result[] = {
/* columns rows colors chars-per-pixel */
"64 64 11 1 ",
"  c #050403",
". c #0E0C0C",
"X c #14121D",
"o c #271F1B",
"O c #2D1B1E",
"+ c #36282B",
"@ c #2C3438",
"# c #4C3D2E",
"$ c #612721",
"% c #465456",
"& c None",
/* pixels */
"&&&&&&&&&&&&&&&&&&&&&&&&&&&&&&&&&&&&&&&&&&&&&&&&&&&&&&&&&&&&&&&&",
"&&&&&&&&&&&&&&&&&&&&&&&&&&&&&&&&&&&&&&&&&&&&&&&&&&&&&&&&&&&&&&&&",
"&&&&&&&&&&&&&&&&&&&&&&&&&&&&&&&       &&&&&&&&&&&&&&&&&&&&&&&&&&",
"&&&&&&&&&&&&&&&&&&&&&&&&&&&&&&         &&&&&&&&&&&&&&&&&&&&&&&&&",
"&&&&&&&&&&&&&&&&&&&&&&&&&&&&&           &&&&&&&&&&&&&&&&&&&&&&&&",
"&&&&&&&&&&&&&&&&&&&&&&&&&&&&        $$$ &&&&&&&&&&&&&&&&&&&&&&&&",
"&&&&&&&&&&&&&&&&&&&&&&&&&&&&      $$$$$ &&&&&&&&&&&&&&&&&&&&&&&&",
"&&&&&&&&&&&&&&&&&&&&&&&&&&&&     $$   $ &&&&&&&&&&&&&&&&&&&&&&&&",
"&&&&&&&&&&&&&&&&&&&&&&&&&&&&    $$$O  $ &&&&&&&&&&&&&&&&&&&&&&&&",
"&&&&&&&&&&&&&&&&&&&&&&&&&&&&  $ $$$$$O$ &&&&&&&&&&&&&&&&&&&&&&&&",
"&&&&&&&&&&&&&&&&&&&&&&&&&&&&& $$$$$$$$$ &&&&&&&&&&&&&&&&&&&&&&&&",
"&&&&&&&&&&&&&&&&&&&&&&&&&&&&&  O$$$$$$$ &&&&&&&&&&&&&&&&&&&&&&&&",
"&&&&&&&&&&&&&&&&&&&&&&&&&&&&&  $O$$$$$$ &&&&&&&&&&&&&&&&&&&&&&&&",
"&&&&&&&&&&&&&&&&&&&&&&&&&&&&&& $OO$$$$$ &&&&&&&&&&&&&&&&&&&&&&&&",
"&&&&&&&&&&&&&&&&&&&&&&&&&&&&&& $OOOO   &&&&&&&&&&&&&&&&&&&&&&&&&",
"&&&&&&&&&&&&&&&&&&&&&&&    && $$OOO &&&&&&&&&&&&&&&&&&&&&&&&&&&&",
"&&&&&&&&&&&&&&&&&&&&&  ++++  $$$$O &&&&&&&&&&&&&&&&&&&&&&&&&&&&&",
"&&&&&&&&&&&&&&&&&&&& +++  ++%$$$$O &&&&&&&&&&&&&&&&&&&&&&&&&&&&&",
"&&&&&&&&&&&&&&&&&&& +++ %%++%%$$$$%  &&&&&&&&&&&&&&&&&&&&&&&&&&&",
"&&&&&&&&&&&&&&&&&& ++++ %%%++%%$$$%++ &&&&&&&&&&&&&&&&&&&&&&&&&&",
"&&&&&&&&&&&&&&&&& ++++ %%%%++%%%%$%%+ &&&&&&&&&&&&&&&&&&&&&&&&&&",
"&&&&&&&&&&&&&&&&& +++ %%%@@%+%%%%%%%+ &&&&&&&&&&&&&&&&&&&&&&&&&&",
"&&&&&&&&&&&&&&&&&& + %%%@@ @++%%%%%%+% &&&&&&&&&&  &&&&&&&&&&&&&",
"&&&&&&&&&&&&&&&&&&& $%%@@ @%++%%%%%%+% &&&&&&&&  $$ &&&&&&&&&&&&",
"&&&&&&&&&&&&&&&&&& $$$@@ @@+++%%%%%% %% &&&&&&& $$$ &&&&&&&&&&&&",
"&&&&&&&&&&&&&&&&& $$$$$ @@@++%%%%%%% @% &&&&&&& O$$ &&&&&&&&&&&&",
"&&&&&&&&&&&&&&&& $$$$$ O @@++%%%%%%% @%$ &&&&& $$$ &&&&&&&&&&&&&",
"&&&&&&&&&&&&&&&& $$O$ OO @++@@%%%%% @@O$$     $$$$ &&&&&&&&&&&&&",
"&&&&&&&&&&&&&&&& $$$ OOO @++@@@%%%% OOOO$$$$$$$O  &&&&&&&&&&&&&&",
"&&&&&&&&&&&&&&&& $$$ OOO ++@%@@%%%%  OOOO$$$$O  &&&&&&&&&&&&&&&&",
"&&&&&&&&&&&&&&& + $$ OOO++@%%%%%%%% & OOOOOO  &&&&&&&&&&&&&&&&&&",
"&&&&&&&&&&&&&&& + $$ OO++@@%%%%%%% &&& OOO  &&&&&&&&&&&&&&&&&&&&",
"&&&&&&&&&&&&&& ++ $$$ ++@@@@%%%%%% &&&&   &&&&&&&&&&&&&&&&&&&&&&",
"&&&&&&&&&&&&&& ++ $$$ +@%%@@@%%%%%.&&&&&&&&&&&&&&&&&&&&&&&&&&&&&",
"&&&&&&&&&&&&&& +++ $$$   %%@@%%%%%.&&&&&&&&&&&&&&&&&&&&&&&&&&&&&",
"&&&&&&&&&&&&&& +++ $$$$$O %%%%%%%%.&&&&&&&&&&&&&&&&&&&&&&&&&&&&&",
"&&&&&&&&&&&&&& ++++ $$$$$O %%%%%% &&&&&&&&&&&&&&&&&&&&&&&&&&&&&&",
"&&&&&&&&&&&&&&& ++++ $$$$O %%%%%% &&&&&&&&&&&&&&&&&&&&&&&&&&&&&&",
"&&&&&&&&&&&&&&&& +++  $$O ##%%%%% &&&&&&&&&&&&&&&&&&&&&&&&&&&&&&",
"&&&&&&&&&&&&&&&&& ++ #   ######## &&&&&&&&&&&&&&&&&&&&&&&&&&&&&&",
"&&&&&&&&&&&&&&&&&& + ############ &&&&&&&&&&&&&&&&&&&&&&&&&&&&&&",
"&&&&&&&&&&&&&&&&&&&  ####oo####### &&&&&&&&&&&&&&&&&&&&&&&&&&&&&",
"&&&&&&&&&&&&&&&&&&&& ####ooo###oo# &&&&&&&&&&&&&&&&&&&&&&&&&&&&&",
"&&&&&&&&&&&&&&&&&&&& #####ooo#ooo# &&&&&&&&&&&&&&&&&&&&&&&&&&&&&",
"&&&&&&&&&&&&&&&&&&&&& ####oo ooo## &&&&&&&&&&&&&&&&&&&&&&&&&&&&&",
"&&&&&&&&&&&&&&&&&&&&& #####o ooo## &&&&&&&&&&&&&&&&&&&&&&&&&&&&&",
"&&&&&&&&&&&&&&&&&&&&& ##### oooo## &&&&&&&&&&&&&&&&&&&&&&&&&&&&&",
"&&&&&&&&&&&&&&&&&&&&& ##### ooooo# &&&&&&&&&&&&&&&&&&&&&&&&&&&&&",
"&&&&&&&&&&&&&&&&&&&&& #####  oooo## &&&&&&&&&&&&&&&&&&&&&&&&&&&&",
"&&&&&&&&&&&&&&&&&&&&& ##### & oooo# &&&&&&&&&&&&&&&&&&&&&&&&&&&&",
"&&&&&&&&&&&&&&&&&&&&& #### &   ooo# &&&&&&&&&&&&&&&&&&&&&&&&&&&&",
"&&&&&&&&&&&&&&&&&&&&& ####  OOOooo# &&&&&&&&&&&&&&&&&&&&&&&&&&&&",
"&&&&&&&&&&&&&&&&&&&& $#### OOOOO### &&&&&&&&&&&&&&&&&&&&&&&&&&&&",
"&&&&&&&&&&&&&&&      $$$## OO$$$$## &&&&&&&&&&&&&&&&&&&&&&&&&&&&",
"&&&&&&&&&&&&&& XXXX$ $$$O $$$$$$$# &&&&&&&&&&&&&&&&&&&&&&&&&&&&&",
"&&&&&&&&&&&&&& XXXX $$$$O         &&&&&&&&&&&&&&&&&&&&&&&&&&&&&&",
"&&&&&&&&&&&&&& XXXX $$$O &&&&&&&&&&&&&&&&&&&&&&&&&&&&&&&&&&&&&&&",
"&&&&&&&&&&&&&& XXX  $$$O &&&&&&&&&&&&&&&&&&&&&&&&&&&&&&&&&&&&&&&",
"&&&&&&&&&&&&& XXX & $$$ &&&&&&&&&&&&&&&&&&&&&&&&&&&&&&&&&&&&&&&&",
"&&&&&&&&&&&&& XX && $$$ &&&&&&&&&&&&&&&&&&&&&&&&&&&&&&&&&&&&&&&&",
"&&&&&&&&&&&&& XX && $$$ &&&&&&&&&&&&&&&&&&&&&&&&&&&&&&&&&&&&&&&&",
"&&&&&&&&&&&&& X &&&& $$ &&&&&&&&&&&&&&&&&&&&&&&&&&&&&&&&&&&&&&&&",
"&&&&&&&&&&&&& X &&&& $$ &&&&&&&&&&&&&&&&&&&&&&&&&&&&&&&&&&&&&&&&",
"&&&&&&&&&&&&&  &&&&& $$ &&&&&&&&&&&&&&&&&&&&&&&&&&&&&&&&&&&&&&&&"
};
