/* XPM */
static char *c7da8411eb074ac29de15fee261fdeeeg1mtrfcNqp7czERb[] = {
/* columns rows colors chars-per-pixel */
"64 64 2 1 ",
"  c #190B02",
". c #281508",
/* pixels */
"                                                                ",
"                                                                ",
" . ............ . .   ........................................  ",
"....................  ........................................  ",
". ..................  ........................................  ",
"....................  ........................................  ",
"....................  ........................................  ",
" ...................  .......................................   ",
"....................  .......................................   ",
"    . . ............  ............................... . . . .   ",
"            . .  .      . . . . . . . . . . . .                 ",
"                                                .               ",
"                                         ..................     ",
"                              ..................................",
"                              ............................ . . .",
"                              ........................... .. . .",
"                              ............................ .. ..",
"                              ......................... . . .. .",
"                              .......................... ... .. ",
"                               ..................... .  .   .   ",
"                                  . . . . .  .  .               ",
"                                                                ",
" . .      . ..................................           . .    ",
".....   ......................................           .....  ",
". . .   ......................................            . . . ",
".. ..   ................................. . .              . ...",
". .. .  .................................. ..               . . ",
" .. .   .................................... .              . . ",
". ...   .....................................              . .  ",
" .      .....................................               .   ",
"          . . . . . . . . . . .                                 ",
"                                                                ",
"                                                                ",
"                                                                ",
"                                      ......................... ",
"                                      ..........................",
"                                      ........................ .",
"                                      ....................... ..",
"                                      ........................ .",
"                                      ....................... ..",
"                                      ........................ .",
"                                  .   .................... .  . ",
"                                        .  .  .  .  .           ",
"                                                                ",
" . . . . . .    .................................   . .    .    ",
".............   ..............................................  ",
". . . . . . .   ..............................................  ",
". . .. ... ..   ..............................................  ",
".... .. . .. .  ..............................................  ",
". . .. ... ..   ..............................................  ",
".. .. .. .. .   ..............................................  ",
"  .  .  .  .       . . .. ....................................  ",
"                             . . . . . . . . . . . . . . .  .   ",
"                                                                ",
"    . . . . . . . . . .                 . . . .                 ",
"   ..... ... ..... ....                ..  .  .                 ",
"   . . .. . .. . .. . .                                         ",
"   . . . ... . . . ... .                                        ",
"   .... .. .. ... .. ..                                         ",
"   . . .. . .. . .. . .                                         ",
"   .. .. ... .. .. . ..    ..                                   ",
"  .  .  .   .  .    .  .    .                         .         ",
"                                                                ",
"                                                                "
};
